<svg  viewBox="0 0 77 20" fill="current" xmlns="http://www.w3.org/2000/svg">
<path d="M3.19013 5.30209V7.45563H8.52096V10.5955H3.19013V15.7305H0V2.16211H9.04563V5.30209H3.19013Z" fill="current"/>
<path d="M20.856 5.06845L20.8388 15.7303H17.6489V14.5853C16.9919 15.4176 16.0539 15.9813 14.7404 15.9813C12.1133 15.9813 10.0833 13.6956 10.0833 10.3972C10.0833 7.08098 12.1473 4.81299 14.719 4.81299C16.0326 4.81299 17.0091 5.39431 17.666 6.2663V5.06408H20.856V5.06845ZM17.666 10.4015C17.666 8.92621 16.7277 7.95743 15.4866 7.95743C14.2497 7.95743 13.3116 8.92621 13.3116 10.4015C13.3116 11.8944 14.2668 12.8457 15.4866 12.8457C16.7234 12.8413 17.666 11.8944 17.666 10.4015Z" fill="current"/>
<path d="M27.0928 1.91169C27.0928 3.01712 26.2868 3.80978 25.1608 3.80978C24.0734 3.80978 23.2292 3.01712 23.2292 1.91169C23.2292 0.828368 24.0734 0.03125 25.1608 0.03125C26.2825 0.03125 27.0928 0.824005 27.0928 1.91169ZM23.5617 5.06932H26.7515V15.7311H23.5617V5.06932Z" fill="current"/>
<path d="M36.2342 4.87289V8.26387C36.0304 8.24631 35.8976 8.2243 35.5947 8.2243C34.0938 8.2243 32.6482 8.69109 32.6482 11.1133V15.7241H29.4583V5.06667H32.6482V6.71376C33.2878 5.41455 34.337 4.81567 35.6505 4.81567C35.8938 4.81567 36.0813 4.83333 36.2342 4.87289Z" fill="current"/>
<path d="M37.3516 12.3572H40.5807C40.7125 12.9386 41.126 13.5023 42.6059 13.5023C43.6762 13.5023 44.0138 13.2117 44.0138 12.7668C44.0138 12.3397 43.6936 12.2428 41.9328 11.8552C38.9854 11.1947 37.7824 10.3799 37.7824 8.50383C37.7824 6.19627 39.5653 4.83984 42.5502 4.83984C45.4591 4.83984 46.8881 6.13905 47.2035 8.1736H43.9753C43.8426 7.67161 43.4291 7.31926 42.4184 7.31926C41.4799 7.31926 41.0116 7.60992 41.0116 8.07671C41.0116 8.44661 41.3135 8.48191 42.5502 8.75492C45.6303 9.45069 47.2968 10.0937 47.2968 12.3C47.2968 14.7618 45.2158 15.9816 42.5675 15.9816C39.7701 15.9816 37.7276 14.6077 37.3516 12.3572Z" fill="current"/>
<path d="M59.8474 10.3998C59.8474 13.6939 57.8222 15.984 55.1902 15.984C53.8775 15.984 52.939 15.4202 52.261 14.5879V19.7552H49.0703V5.06667H52.261V6.26899C52.9178 5.397 53.8939 4.81567 55.2075 4.81567C57.7837 4.81567 59.8474 7.08366 59.8474 10.3998ZM56.6192 10.3998C56.6192 8.92453 55.6806 7.95565 54.4439 7.95565C53.2034 7.95565 52.2649 8.92453 52.2649 10.3998C52.2649 11.8927 53.2034 12.844 54.4439 12.844C55.6594 12.8395 56.6192 11.8927 56.6192 10.3998Z" fill="current"/>
<path d="M65.0679 1.91169C65.0679 3.01712 64.2611 3.80978 63.136 3.80978C62.0484 3.80978 61.2031 3.01712 61.2031 1.91169C61.2031 0.828368 62.0484 0.03125 63.136 0.03125C64.2573 0.03125 65.0679 0.824005 65.0679 1.91169ZM61.5358 5.06932H64.7266V15.7311H61.5358V5.06932Z" fill="current"/>
<path d="M76.5157 9.06099V15.7285H73.326V9.79642C73.326 8.63387 72.9884 7.95565 71.6922 7.95565C70.4343 7.95565 69.7949 8.5942 69.7949 10.0695V15.7285H66.6042V5.06667H69.7949V6.26899C70.5449 5.31767 71.5046 4.81567 72.7798 4.81567C75.1089 4.81567 76.5157 6.46277 76.5157 9.06099Z" fill="current"/>
</svg>
