<svg  fill="none" xmlns="http://www.w3.org/2000/svg">
<path fill-rule="evenodd" clip-rule="evenodd" d="M31.6001 16.5206C31.6001 25.154 24.6158 32.1527 16.0001 32.1527C7.38447 32.1527 0.400116 25.154 0.400116 16.5206C0.400116 7.88728 7.38447 0.88855 16.0001 0.88855C22.8016 0.88855 28.5865 5.2502 30.7211 11.3345C30.6062 17.2561 26.4397 22.7379 19.9575 23.6238C19.3217 23.0706 18.0224 22.7891 16.5737 22.9637C14.5997 23.2017 13.0957 24.1963 13.2144 25.1853C13.3331 26.1744 15.0296 26.7833 17.0036 26.5453C18.2132 26.3995 19.2464 25.9696 19.8378 25.4309C25.6221 24.7875 29.8385 20.9562 31.5961 16.1635C31.5988 16.2822 31.6001 16.4013 31.6001 16.5206ZM12.4005 13.5144C12.4005 14.5105 11.3259 15.3181 10.0005 15.3181C8.67498 15.3181 7.60046 14.5105 7.60046 13.5144C7.60046 12.5182 8.67498 11.7107 10.0005 11.7107C11.3259 11.7107 12.4005 12.5182 12.4005 13.5144ZM22.0005 15.3181C23.3259 15.3181 24.4005 14.5105 24.4005 13.5144C24.4005 12.5182 23.3259 11.7107 22.0005 11.7107C20.675 11.7107 19.6005 12.5182 19.6005 13.5144C19.6005 14.5105 20.675 15.3181 22.0005 15.3181Z" fill="#EBBE7D"/>
</svg>
