<svg   fill="none" xmlns="http://www.w3.org/2000/svg">
<path fill-rule="evenodd" clip-rule="evenodd" d="M8.34742 4.59455C10.4981 4.59455 11.3942 4.20951 12.9474 2.66935C15.3967 0.294949 16.0539 0.294949 18.6227 2.66935C20.1759 4.20951 21.1915 4.59455 23.2824 4.59455C26.3292 4.59455 27.1655 5.62132 27.1655 9.53588C27.1655 11.5252 27.5837 12.4878 28.9577 13.8996C31.1681 16.2099 31.1681 16.7233 28.9577 19.0335C27.5837 20.4453 27.1655 21.4079 27.1655 23.3973C27.1655 27.3118 26.3292 28.3386 23.2824 28.3386C21.1915 28.3386 20.1759 28.7236 18.6227 30.2638C17.4876 31.2906 16.2331 32.189 15.8149 32.189C15.3967 32.189 14.1422 31.2906 13.0071 30.2638C11.4539 28.7236 10.4383 28.3386 8.34742 28.3386C5.30068 28.3386 4.46432 27.3118 4.46432 23.3973C4.46432 21.4079 4.04614 20.4453 2.67211 19.0335C1.71627 18.0067 0.879913 16.9158 0.879913 16.5949C0.879913 16.2741 1.65653 14.9906 2.67211 13.7713C3.92666 12.2311 4.46432 10.9477 4.46432 9.34336C4.46432 5.62132 5.30068 4.59455 8.34742 4.59455ZM19.9523 13.4849C20.565 12.8473 20.5448 11.8338 19.9073 11.2211C19.2697 10.6085 18.2562 10.6286 17.6435 11.2662L10.4747 18.7263C9.86203 19.3639 9.88222 20.3774 10.5198 20.9901C11.1573 21.6028 12.1709 21.5826 12.7835 20.945L19.9523 13.4849ZM13.4219 12.6162C13.4219 13.4137 12.8201 14.0601 12.0778 14.0601C11.3354 14.0601 10.7336 13.4137 10.7336 12.6162C10.7336 11.8188 11.3354 11.1723 12.0778 11.1723C12.8201 11.1723 13.4219 11.8188 13.4219 12.6162ZM18.799 21.2796C19.5414 21.2796 20.1432 20.6331 20.1432 19.8357C20.1432 19.0383 19.5414 18.3918 18.799 18.3918C18.0567 18.3918 17.4549 19.0383 17.4549 19.8357C17.4549 20.6331 18.0567 21.2796 18.799 21.2796Z" fill="#EBBE7D"/>
</svg>
