<svg  fill="none" xmlns="http://www.w3.org/2000/svg">
<path d="M13.547 13.7009C14.6656 11.5044 17.8038 11.5044 18.9224 13.7009L20.2848 16.376C20.7226 17.2356 21.5452 17.834 22.4978 17.9858L25.4679 18.4592C27.898 18.8464 28.8667 21.824 27.1295 23.567L24.9967 25.7069C24.3171 26.3888 24.0038 27.3541 24.1535 28.3051L24.6228 31.2863C25.0058 33.7197 22.4681 35.5613 20.2734 34.4425L17.6045 33.082C16.744 32.6433 15.7254 32.6433 14.8648 33.082L12.196 34.4425C10.0013 35.5613 7.46357 33.7197 7.8466 31.2863L8.31584 28.3051C8.46554 27.3541 8.15226 26.3888 7.47266 25.7069L5.33987 23.567C3.60272 21.824 4.57136 18.8464 7.00151 18.4592L9.97154 17.9858C10.9242 17.834 11.7468 17.2356 12.1846 16.376L13.547 13.7009Z" fill="#EBBE7D"/>
<path d="M6.01953 4.58447V14.5658" stroke="#EBBE7D" stroke-width="3.40541" stroke-linecap="round"/>
<path d="M25.9397 4.58447V14.5658" stroke="#EBBE7D" stroke-width="3.40541" stroke-linecap="round"/>
<path d="M15.7243 2.28113V6.12009" stroke="#EBBE7D" stroke-width="3.40541" stroke-linecap="round"/>
</svg>
