<svg width="60" height="61" viewBox="0 0 60 61" fill="none" xmlns="http://www.w3.org/2000/svg">
<rect y="0.458862" width="60" height="60.1235" rx="8" fill="#353535"/>
<path d="M27.547 22.7009C28.6656 20.5044 31.8038 20.5044 32.9224 22.7009L34.2848 25.376C34.7226 26.2356 35.5452 26.834 36.4978 26.9858L39.4679 27.4592C41.898 27.8464 42.8667 30.824 41.1295 32.567L38.9967 34.7069C38.3171 35.3888 38.0038 36.3541 38.1535 37.3051L38.6228 40.2863C39.0058 42.7197 36.4681 44.5613 34.2734 43.4425L31.6045 42.082C30.744 41.6433 29.7254 41.6433 28.8648 42.082L26.196 43.4425C24.0013 44.5613 21.4636 42.7197 21.8466 40.2863L22.3158 37.3051C22.4655 36.3541 22.1523 35.3888 21.4727 34.7069L19.3399 32.567C17.6027 30.824 18.5714 27.8464 21.0015 27.4592L23.9715 26.9858C24.9242 26.834 25.7468 26.2356 26.1846 25.376L27.547 22.7009Z" fill="#EBBE7D"/>
<path d="M20.0195 13.5845V23.5658" stroke="#EBBE7D" stroke-width="3.40541" stroke-linecap="round"/>
<path d="M39.9397 13.5845V23.5658" stroke="#EBBE7D" stroke-width="3.40541" stroke-linecap="round"/>
<path d="M29.7243 11.2811V15.1201" stroke="#EBBE7D" stroke-width="3.40541" stroke-linecap="round"/>
</svg>
