<svg   fill="none" xmlns="http://www.w3.org/2000/svg">
<g filter="url(#filter0_d_1_286)">
<path d="M17.2503 9.1156H18.4845L16.9691 13.9255H15.5017L14 9.1156H15.2343L16.2423 12.51L17.2503 9.1156Z" fill="#EBBE7D"/>
<path d="M19.1367 13.9255V9.1156H20.3024V13.9255H19.1367Z" fill="#EBBE7D"/>
<path d="M23.3166 9.1156C23.8377 9.1156 24.256 9.2599 24.5714 9.54849C24.8869 9.83708 25.0446 10.2425 25.0446 10.7647C25.0446 11.2869 24.8846 11.6969 24.5646 11.9947C24.2491 12.2924 23.8331 12.4413 23.3166 12.4413H22.4251V13.9255H21.2594V9.1156H23.3166ZM23.2686 11.3281C23.6663 11.3281 23.8651 11.1449 23.8651 10.7784C23.8651 10.412 23.6663 10.2287 23.2686 10.2287H22.4251V11.3281H23.2686Z" fill="#EBBE7D"/>
<path d="M41.0199 21.8897L45.4487 5.32722C45.8767 3.7266 44.9265 2.08074 43.3263 1.6511L40.2736 0.831439L39.1134 3.18262L39.5737 5.43633L38.0505 7.15751L38.5108 9.41123L36.9876 11.1324L37.4479 13.3861L35.9248 15.1073L36.385 17.361L34.8619 19.0822L35.3221 21.3359L33.799 23.0571L37.3476 24.0099C38.9477 24.4395 40.5919 23.4903 41.0199 21.8897Z" fill="#EBBE7D"/>
<path fill-rule="evenodd" clip-rule="evenodd" d="M4.39978 20.2443L4.4013 3.09678C4.40145 1.44003 5.74455 0.0970459 7.4013 0.0970459H33.6416L33.1282 2.66899L34.1549 4.72655L33.1282 6.78411L34.1549 8.84167L33.1282 10.8992L34.1549 12.9568L33.1282 15.0143L34.1549 17.0719L33.1282 19.1295L34.1549 21.187L33.1282 23.2446H7.39978C5.74282 23.2446 4.39963 21.9013 4.39978 20.2443ZM19.4009 18.7353C23.3773 18.7353 26.6009 15.5051 26.6009 11.5205C26.6009 7.53587 23.3773 4.30569 19.4009 4.30569C15.4244 4.30569 12.2009 7.53587 12.2009 11.5205C12.2009 15.5051 15.4244 18.7353 19.4009 18.7353Z" fill="#EBBE7D"/>
</g>
<defs>
<filter id="filter0_d_1_286" x="0.39978" y="0.0970459" width="49.1515" height="32.0162" filterUnits="userSpaceOnUse" color-interpolation-filters="sRGB">
<feFlood flood-opacity="0" result="BackgroundImageFix"/>
<feColorMatrix in="SourceAlpha" type="matrix" values="0 0 0 0 0 0 0 0 0 0 0 0 0 0 0 0 0 0 127 0" result="hardAlpha"/>
<feOffset dy="4"/>
<feGaussianBlur stdDeviation="2"/>
<feComposite in2="hardAlpha" operator="out"/>
<feColorMatrix type="matrix" values="0 0 0 0 0 0 0 0 0 0 0 0 0 0 0 0 0 0 0.25 0"/>
<feBlend mode="normal" in2="BackgroundImageFix" result="effect1_dropShadow_1_286"/>
<feBlend mode="normal" in="SourceGraphic" in2="effect1_dropShadow_1_286" result="shape"/>
</filter>
</defs>
</svg>
