<svg  viewBox="0 0 77 11" fill="current" xmlns="http://www.w3.org/2000/svg">
<path d="M7.47447 0.584236H8.20247L4.79647 9.96861H3.88647L0.480469 0.584236H1.20847L4.34147 9.23127L7.47447 0.584236Z" fill="current"/>
<path d="M12.4181 9.96861V0.584236H13.1071V9.96861H12.4181Z" fill="current"/>
<path d="M21.6155 0.584236C22.6035 0.584236 23.3662 0.861299 23.9035 1.41542C24.4495 1.96955 24.7225 2.67114 24.7225 3.5202C24.7225 4.36033 24.4495 5.06639 23.9035 5.63839C23.3575 6.21039 22.5948 6.49639 21.6155 6.49639H18.7555V9.96861H18.0535V0.584236H21.6155ZM21.6025 5.81267C22.3912 5.81267 22.9892 5.59371 23.3965 5.15577C23.8125 4.71783 24.0205 4.17264 24.0205 3.5202C24.0205 2.86777 23.8168 2.33152 23.4095 1.91146C23.0022 1.48245 22.3998 1.26795 21.6025 1.26795H18.7555V5.81267H21.6025Z" fill="current"/>
<path d="M39.9756 10.1161C38.6323 10.1161 37.5143 9.66027 36.6216 8.74864C35.7376 7.82808 35.2956 6.67067 35.2956 5.27642C35.2956 3.88217 35.7376 2.72924 36.6216 1.81761C37.5143 0.897049 38.6323 0.436768 39.9756 0.436768C40.9636 0.436768 41.839 0.709361 42.6016 1.25455C43.3643 1.79974 43.9103 2.53708 44.2396 3.46658H43.4986C43.1866 2.75158 42.7143 2.18405 42.0816 1.76399C41.4576 1.33499 40.747 1.12049 39.9496 1.12049C38.8316 1.12049 37.8913 1.51821 37.1286 2.31364C36.366 3.10908 35.9846 4.09667 35.9846 5.27642C35.9846 6.45617 36.366 7.44377 37.1286 8.2392C37.8913 9.03464 38.8316 9.43236 39.9496 9.43236C40.747 9.43236 41.4576 9.22233 42.0816 8.80227C42.7143 8.37327 43.1866 7.80127 43.4986 7.08627H44.2396C43.9103 8.01577 43.3643 8.75311 42.6016 9.2983C41.839 9.84349 40.9636 10.1161 39.9756 10.1161Z" fill="current"/>
<path d="M49.2591 9.28489H53.8871V9.96861H48.5701V0.584236H49.2591V9.28489Z" fill="current"/>
<path d="M64.0537 0.584236H64.7558V6.32211C64.7558 7.55549 64.4264 8.49839 63.7677 9.15083C63.1177 9.79433 62.2728 10.1161 61.2327 10.1161C60.1927 10.1161 59.3434 9.79433 58.6847 9.15083C58.0347 8.49839 57.7098 7.55549 57.7098 6.32211V0.584236H58.4118V6.28189C58.4118 7.31864 58.6717 8.10514 59.1917 8.64139C59.7118 9.1687 60.3921 9.43236 61.2327 9.43236C62.0734 9.43236 62.7537 9.1687 63.2738 8.64139C63.7938 8.10514 64.0537 7.31864 64.0537 6.28189V0.584236Z" fill="current"/>
<path d="M74.6217 4.99489C75.7397 5.31664 76.2987 6.12102 76.2987 7.40802C76.2987 8.20346 76.0517 8.82908 75.5577 9.28489C75.0723 9.74071 74.34 9.96861 73.3607 9.96861H69.6297V0.584236H73.2567C75.094 0.584236 76.0127 1.37074 76.0127 2.94374C76.0127 3.98049 75.549 4.66421 74.6217 4.99489ZM74.8167 4.31117C75.1547 4.0073 75.3237 3.57383 75.3237 3.01077C75.3237 2.44771 75.159 2.01871 74.8297 1.72377C74.509 1.41989 73.9673 1.26795 73.2047 1.26795H70.3187V4.75358H73.1267C73.924 4.75358 74.4873 4.60611 74.8167 4.31117ZM73.3477 9.28489C74.847 9.28489 75.5967 8.64586 75.5967 7.3678C75.5967 6.73324 75.419 6.25061 75.0637 5.91992C74.7083 5.5803 74.1277 5.41049 73.3217 5.41049H70.3187V9.28489H73.3477Z" fill="current"/>
</svg>
