<svg  viewBox="0 0 43 33" fill="current" xmlns="http://www.w3.org/2000/svg">
<path d="M13.8619 25.3577C14.7237 26.9081 15.5835 27.9647 16.3324 29.3887C16.7324 30.0956 15.8787 32.05 15.1142 32.1058H12.3079L12.5687 30.9733C12.8968 30.5816 13.1939 30.2282 13.4816 29.8909C13.3264 29.606 13.1756 29.3517 13.0056 29.076L13.8619 25.3577ZM32.8264 0.507936C32.6829 1.42723 32.2263 2.37622 31.592 3.07371C30.89 3.84516 29.8576 4.50497 27.9644 5.39138C23.922 7.28425 20.5107 8.9996 19.3705 9.51699C18.2301 10.0343 17.5139 10.4915 17.2344 11.1159C17.3413 11.439 17.4487 11.7616 17.5561 12.0843C18.1258 11.7868 18.8649 11.4281 19.9584 10.9123C25.7984 8.15651 29.6264 6.34357 30.892 5.73485C31.6846 5.35381 32.3515 5.04322 32.3729 5.04578C32.3948 5.04791 32.3774 5.27653 32.3341 5.5538C32.1912 6.47299 31.734 7.42209 31.1002 8.11893C30.3977 8.89103 29.3654 9.55094 27.4721 10.4373C24.7868 11.6948 22.1006 12.9732 20.4512 13.7756L20.9388 13.9056C21.4642 14.0455 21.9895 14.1853 22.5154 14.3258C25.8198 12.764 28.0224 11.7193 28.9234 11.285C29.7166 10.904 30.383 10.5934 30.4048 10.5959C30.4267 10.5986 30.4094 10.8267 30.3662 11.104C30.2226 12.0232 29.7659 12.9721 29.1322 13.6696C28.5844 14.2715 27.8361 14.805 26.6362 15.431C28.3147 15.8851 29.9929 16.345 31.6674 16.8153C32.1021 16.9453 32.606 17.2809 32.8499 17.6715C34.2829 19.9323 35.6768 22.2219 37.0654 24.5021C37.2766 24.8498 37.4884 25.1969 37.6997 25.544C38.0128 26.0462 38.2561 26.2702 38.7946 25.8045C39.0706 25.5712 39.4326 25.2992 39.8159 25.2981C40.1992 25.2971 42.1443 26.3328 42.55 26.5306C42.0394 26.8392 40.4365 28.1187 39.6937 28.1082C39.1567 28.1009 37.9053 27.6723 37.1718 26.8115C36.0519 25.4976 33.6837 22.3112 32.5714 20.7049C32.4065 21.702 32.0873 23.219 32.5541 24.1294C33.0795 25.1416 33.8954 25.9564 34.5186 26.9029C34.6927 27.1634 34.7792 27.6473 34.6748 27.926C34.0899 29.5005 33.2938 30.9564 32.6585 32.5047C32.5714 32.7093 32.2919 33 32.1178 33C31.0208 33 29.8953 33 28.7885 33C29.1292 32.1977 28.9322 31.1809 29.964 30.9225C30.6594 30.7548 31.5284 29.1919 31.2504 28.5034C31.0967 28.092 27.1138 26.0249 26.5568 25.7487C25.8787 25.4135 25.8813 24.987 25.9307 24.2786C25.9791 23.5838 26.0229 22.8739 26.0696 22.1755C22.6254 22.9841 19.1821 23.7989 15.7265 24.5574C15.3962 24.632 14.9268 24.4645 14.6662 24.2228C14.2548 23.8538 13.8787 23.4388 13.4749 22.9929C13.2474 22.7418 13.0106 22.4808 12.7537 22.2125C12.3158 24.8529 11.7365 27.5183 11.23 30.1514C11.0636 31.0154 10.5259 31.764 10.0942 32.5417C9.97204 32.7464 9.72014 33 9.52874 33C8.56148 33 7.57896 33 6.60163 33C6.78036 31.7983 6.85508 31.2904 7.14779 31.0279C7.36669 30.8311 7.70725 30.7762 8.30345 30.6807C7.51284 27.7641 6.71663 24.8487 5.92197 21.9332C5.35795 22.1514 4.97712 22.3169 4.11988 22.6442C3.79916 19.6619 3.68104 17.6411 3.41844 14.5821C3.38989 13.5302 3.93357 12.4748 4.48846 12.0681C4.79901 11.8404 5.10801 11.7726 5.54623 11.6045C4.46407 11.6045 3.02745 11.6045 2.41049 11.6045C1.79353 11.6045 1.71506 11.4552 1.52366 10.9901C1.10682 9.92932 0.637355 8.88688 0.150245 7.84486C-0.0930501 7.30511 -0.0757147 7.0071 0.463292 6.65373C1.94164 5.70409 3.39601 4.73519 4.85091 3.76587C5.87671 3.08254 6.90346 2.39868 7.9384 1.72163C8.1818 1.57283 8.54674 1.57284 8.82522 1.62872C10.2159 1.94505 11.6062 2.28012 12.9624 2.68937C13.1084 2.73333 13.2565 2.76877 13.4042 2.80474C14.1357 2.98122 14.8464 3.15343 15.1355 4.25282C15.4873 5.58509 15.8818 6.90843 16.2967 8.22601C16.7421 7.39751 19.1378 6.48609 20.4501 5.86652C26.2901 3.11075 30.1187 1.29823 31.3838 0.688984C32.1769 0.308045 32.8432 -0.00211785 32.8651 1.08926e-05C32.8871 0.00256538 32.8697 0.230668 32.8264 0.507936ZM24.5796 24.345C24.1276 25.9825 25.1534 26.597 26.1612 27.1926C26.3512 27.2913 26.6439 27.5298 26.5787 28.1045C26.4815 29.1466 26.3395 30.189 26.1975 31.2309C26.1618 31.4915 26.1267 31.7519 26.092 32.0124C26.0396 32.441 25.9653 32.7563 25.4313 32.7573C24.4168 32.7557 23.4037 32.7563 22.3896 32.7563C22.7374 31.6022 23.0326 31.2126 23.9708 30.8217C24.2615 30.6859 24.3658 30.4918 24.3928 30.2819C24.4483 29.8533 24.288 28.6987 23.9015 28.5508C23.1538 28.2533 22.3718 28.067 21.5894 27.9183C20.1467 27.6389 19.3118 26.8763 19.0166 25.4239C20.8706 25.0617 22.7272 24.7161 24.5796 24.345Z" fill="current"/>
</svg>
