<svg width="60" height="61" viewBox="0 0 60 61" fill="none" xmlns="http://www.w3.org/2000/svg">
<rect y="0.458862" width="60" height="60.1235" rx="8" fill="#353535"/>
<path fill-rule="evenodd" clip-rule="evenodd" d="M45.6001 30.5206C45.6001 39.154 38.6158 46.1527 30.0001 46.1527C21.3845 46.1527 14.4001 39.154 14.4001 30.5206C14.4001 21.8873 21.3845 14.8885 30.0001 14.8885C36.8016 14.8885 42.5865 19.2502 44.7211 25.3345C44.6062 31.2561 40.4397 36.7379 33.9575 37.6238C33.3217 37.0706 32.0224 36.7891 30.5737 36.9637C28.5997 37.2017 27.0957 38.1963 27.2144 39.1853C27.3331 40.1744 29.0296 40.7833 31.0036 40.5453C32.2132 40.3995 33.2464 39.9696 33.8378 39.4309C39.6221 38.7875 43.8385 34.9562 45.5961 30.1635C45.5988 30.2822 45.6001 30.4013 45.6001 30.5206ZM26.4005 27.5144C26.4005 28.5105 25.3259 29.3181 24.0005 29.3181C22.675 29.3181 21.6005 28.5105 21.6005 27.5144C21.6005 26.5182 22.675 25.7107 24.0005 25.7107C25.3259 25.7107 26.4005 26.5182 26.4005 27.5144ZM36.0005 29.3181C37.3259 29.3181 38.4005 28.5105 38.4005 27.5144C38.4005 26.5182 37.3259 25.7107 36.0005 25.7107C34.675 25.7107 33.6005 26.5182 33.6005 27.5144C33.6005 28.5105 34.675 29.3181 36.0005 29.3181Z" fill="#EBBE7D"/>
</svg>
