<svg width="56" height="61" viewBox="0 0 56 61" fill="none" xmlns="http://www.w3.org/2000/svg">
<rect y="0.458862" width="55.9701" height="60.1235" rx="8" fill="#353535"/>
<path fill-rule="evenodd" clip-rule="evenodd" d="M20.3474 18.5945C22.4981 18.5945 23.3942 18.2095 24.9474 16.6693C27.3967 14.2949 28.0539 14.2949 30.6227 16.6693C32.1759 18.2095 33.1915 18.5945 35.2824 18.5945C38.3292 18.5945 39.1655 19.6213 39.1655 23.5359C39.1655 25.5252 39.5837 26.4878 40.9577 27.8996C43.1681 30.2099 43.1681 30.7233 40.9577 33.0335C39.5837 34.4453 39.1655 35.4079 39.1655 37.3973C39.1655 41.3118 38.3292 42.3386 35.2824 42.3386C33.1915 42.3386 32.1759 42.7236 30.6227 44.2638C29.4876 45.2906 28.2331 46.189 27.8149 46.189C27.3967 46.189 26.1422 45.2906 25.0071 44.2638C23.4539 42.7236 22.4383 42.3386 20.3474 42.3386C17.3007 42.3386 16.4643 41.3118 16.4643 37.3973C16.4643 35.4079 16.0461 34.4453 14.6721 33.0335C13.7163 32.0067 12.8799 30.9158 12.8799 30.5949C12.8799 30.274 13.6565 28.9906 14.6721 27.7713C15.9267 26.2311 16.4643 24.9477 16.4643 23.3434C16.4643 19.6213 17.3007 18.5945 20.3474 18.5945ZM31.9523 27.4849C32.565 26.8473 32.5448 25.8338 31.9073 25.2211C31.2697 24.6085 30.2562 24.6286 29.6435 25.2662L22.4747 32.7263C21.862 33.3639 21.8822 34.3774 22.5198 34.9901C23.1573 35.6027 24.1709 35.5826 24.7835 34.945L31.9523 27.4849ZM25.4219 26.6162C25.4219 27.4136 24.8201 28.0601 24.0778 28.0601C23.3354 28.0601 22.7336 27.4136 22.7336 26.6162C22.7336 25.8188 23.3354 25.1723 24.0778 25.1723C24.8201 25.1723 25.4219 25.8188 25.4219 26.6162ZM30.799 35.2796C31.5414 35.2796 32.1432 34.6331 32.1432 33.8357C32.1432 33.0383 31.5414 32.3918 30.799 32.3918C30.0567 32.3918 29.4549 33.0383 29.4549 33.8357C29.4549 34.6331 30.0567 35.2796 30.799 35.2796Z" fill="#EBBE7D"/>
</svg>
