<svg width="68" height="69" viewBox="0 0 68 69" fill="none" xmlns="http://www.w3.org/2000/svg">
<g filter="url(#filter0_d_1_286)">
<rect x="4" y="0.458862" width="60" height="60.1235" rx="8" fill="#353535"/>
<path d="M28.2503 28.1156H29.4846L27.9691 32.9255H26.5017L25 28.1156H26.2343L27.2423 31.51L28.2503 28.1156Z" fill="#EBBE7D"/>
<path d="M30.1367 32.9255V28.1156H31.3024V32.9255H30.1367Z" fill="#EBBE7D"/>
<path d="M34.3166 28.1156C34.8377 28.1156 35.256 28.2599 35.5715 28.5485C35.8869 28.8371 36.0446 29.2425 36.0446 29.7647C36.0446 30.2869 35.8846 30.6969 35.5646 30.9947C35.2492 31.2924 34.8332 31.4413 34.3166 31.4413H33.4252V32.9255H32.2595V28.1156H34.3166ZM34.2686 30.3281C34.6663 30.3281 34.8652 30.1449 34.8652 29.7784C34.8652 29.412 34.6663 29.2287 34.2686 29.2287H33.4252V30.3281H34.2686Z" fill="#EBBE7D"/>
<path d="M52.0199 40.8898L56.4487 24.3273C56.8767 22.7267 55.9265 21.0809 54.3263 20.6512L51.2736 19.8316L50.1134 22.1827L50.5737 24.4365L49.0506 26.1576L49.5108 28.4114L47.9877 30.1325L48.4479 32.3862L46.9248 34.1074L47.385 36.3611L45.8619 38.0823L46.3221 40.336L44.799 42.0572L48.3476 43.01C49.9478 43.4397 51.5919 42.4904 52.0199 40.8898Z" fill="#EBBE7D"/>
<path fill-rule="evenodd" clip-rule="evenodd" d="M15.3998 39.2443L15.4013 22.0968C15.4015 20.44 16.7446 19.097 18.4013 19.097H44.6416L44.1283 21.669L45.1549 23.7266L44.1283 25.7841L45.1549 27.8417L44.1283 29.8992L45.1549 31.9568L44.1283 34.0143L45.1549 36.0719L44.1283 38.1295L45.1549 40.187L44.1283 42.2446H18.3998C16.7429 42.2446 15.3997 40.9013 15.3998 39.2443ZM30.4009 37.7353C34.3773 37.7353 37.6009 34.5051 37.6009 30.5205C37.6009 26.5359 34.3773 23.3057 30.4009 23.3057C26.4244 23.3057 23.2009 26.5359 23.2009 30.5205C23.2009 34.5051 26.4244 37.7353 30.4009 37.7353Z" fill="#EBBE7D"/>
</g>
<defs>
<filter id="filter0_d_1_286" x="0" y="0.458862" width="68" height="68.1234" filterUnits="userSpaceOnUse" color-interpolation-filters="sRGB">
<feFlood flood-opacity="0" result="BackgroundImageFix"/>
<feColorMatrix in="SourceAlpha" type="matrix" values="0 0 0 0 0 0 0 0 0 0 0 0 0 0 0 0 0 0 127 0" result="hardAlpha"/>
<feOffset dy="4"/>
<feGaussianBlur stdDeviation="2"/>
<feComposite in2="hardAlpha" operator="out"/>
<feColorMatrix type="matrix" values="0 0 0 0 0 0 0 0 0 0 0 0 0 0 0 0 0 0 0.25 0"/>
<feBlend mode="normal" in2="BackgroundImageFix" result="effect1_dropShadow_1_286"/>
<feBlend mode="normal" in="SourceGraphic" in2="effect1_dropShadow_1_286" result="shape"/>
</filter>
</defs>
</svg>
